HIERARCHY
ROOT Hips
{
	OFFSET 0.00000 0.00000 0.00000
	CHANNELS 6 Xposition Yposition Zposition Zrotation Yrotation Xrotation 
	JOINT LHipJoint
	{
		OFFSET 0 0 0
		CHANNELS 3 Zrotation Yrotation Xrotation
		JOINT LeftHip
		{
			OFFSET 1.58161 -1.81893 0.78828
			CHANNELS 3 Zrotation Yrotation Xrotation
			JOINT LeftKnee
			{
				OFFSET 2.53374 -6.96141 0.00000
				CHANNELS 3 Zrotation Yrotation Xrotation
				JOINT LeftAnkle
				{
					OFFSET 2.63509 -7.23986 0.00000
					CHANNELS 3 Zrotation Yrotation Xrotation
					JOINT LeftToe
					{
						OFFSET 0.14115 -0.38781 2.05350
						CHANNELS 3 Zrotation Yrotation Xrotation
						End Site
						{
							OFFSET 0.00000 -0.00000 1.05543
						}
					}
				}
			}
		}
	}
	JOINT RHipJoint
	{
		OFFSET 0 0 0
		CHANNELS 3 Zrotation Yrotation Xrotation
		JOINT RightHip
		{
			OFFSET -1.11138 -1.81893 0.78828
			CHANNELS 3 Zrotation Yrotation Xrotation
			JOINT RightKnee
			{
				OFFSET -2.58392 -7.09926 0.00000
				CHANNELS 3 Zrotation Yrotation Xrotation
				JOINT RightAnkle
				{
					OFFSET -2.66423 -7.31992 0.00000
					CHANNELS 3 Zrotation Yrotation Xrotation
					JOINT RightToe
					{
						OFFSET -0.18831 -0.51739 2.12114
						CHANNELS 3 Zrotation Yrotation Xrotation
						End Site
						{
							OFFSET -0.00000 -0.00000 1.09845
						}
					}
				}
			}
		}
	}
	JOINT lowerback
	{
		OFFSET 0 0 0
		CHANNELS 3 Zrotation Yrotation Xrotation
		JOINT Chest
		{
			OFFSET -0.01511 1.97958 -0.08829
			CHANNELS 3 Zrotation Yrotation Xrotation
			JOINT Chest2
			{
				OFFSET 0.08344 1.97334 -0.04330
				CHANNELS 3 Zrotation Yrotation Xrotation
				JOINT lowerneck
				{
					OFFSET 0 0 0
					CHANNELS 3 Zrotation Yrotation Xrotation
					JOINT Neck
					{
						OFFSET 0.00559 1.76246 0.31246
						CHANNELS 3 Zrotation Yrotation Xrotation
						JOINT Head
						{
							OFFSET -0.07011 1.80354 -0.30524
							CHANNELS 3 Zrotation Yrotation Xrotation
							End Site
							{
								OFFSET -0.02385 1.83547 -0.13906
							}
						}
					}
				}
				JOINT LeftCollar
				{
					OFFSET 0 0 0
					CHANNELS 3 Zrotation Yrotation Xrotation
					JOINT LeftShoulder
					{
						OFFSET 3.20667 1.30156 -0.60240
CHANNELS 3 Zrotation Xrotation Yrotation
						JOINT LeftElbow
						{
OFFSET 0 -4.956630 0.000000
CHANNELS 3 Zrotation Xrotation Yrotation
							JOINT LeftWrist
							{
OFFSET 0 -3.381770 0.000000
CHANNELS 3 Zrotation Xrotation Yrotation
								JOINT lhand
								{
									OFFSET 0 0 0
CHANNELS 3 Zrotation Xrotation Yrotation
									JOINT LFingers
									{
OFFSET 0 -0.662910 0.000000
CHANNELS 3 Zrotation Xrotation Yrotation
										End Site
										{
OFFSET 0 -0.534450 0.000000
										}
									}
								}
								JOINT LThumb
								{
OFFSET 0 0.000000 0.000000
CHANNELS 3 Zrotation Xrotation Yrotation
									End Site
									{
OFFSET 0 -0.542610 0.542610
									}
								}
							}
						}
					}
				}
				JOINT RightCollar
				{
					OFFSET 0 0 0
					CHANNELS 3 Zrotation Yrotation Xrotation
					JOINT RightShoulder
					{
						OFFSET -3.06877 1.34672 -0.60964
CHANNELS 3 Zrotation Xrotation Yrotation
						JOINT RightElbow
						{
OFFSET 0 -5.083650 0.000000
CHANNELS 3 Zrotation Xrotation Yrotation
							JOINT RightWrist
							{
OFFSET 0 -3.359840 0.000000
CHANNELS 3 Zrotation Xrotation Yrotation
								JOINT rhand
								{
									OFFSET 0 0 0
CHANNELS 3 Zrotation Xrotation Yrotation
									JOINT RFingers
									{
OFFSET 0 -0.820760 0.000000
CHANNELS 3 Zrotation Xrotation Yrotation
										End Site
										{
OFFSET 0 -0.661720 0.000000
										}
									}
								}
								JOINT RThumb
								{
OFFSET 0 0.000000 0.000000
CHANNELS 3 Zrotation Xrotation Yrotation
									End Site
									{
OFFSET 0 -0.671820 0.671820
									}
								}
							}
						}
					}
				}
			}
		}
	}
}
MOTION
Frames: 10
Frame Time: 0.008333333333333333
0.962800 17.943900 -8.848400 -6.318400 -6.902900 8.183600 0.000000 0.000000 0.000000 -14.187300 -0.841900 -13.563000 2.689800 10.175200 29.545900 1.187300 1.751100 -21.286200 0.217700 -3.003600 -8.288700 0.000000 0.000000 0.000000 24.178700 6.455500 -13.934100 -2.423700 -9.697800 28.003600 -0.755900 -1.618100 -17.086000 -0.004900 -0.453000 1.244800 -1.667700 0.690600 -8.788700 4.233500 0.888900 -0.512300 5.484900 0.368200 4.308600 1.600700 0.717900 -15.565700 -5.974100 3.035100 40.610100 -2.489500 0.614900 17.813600 0.000000 -0.000000 0.000000 0.285600 -2.679300 -30.263000 11.207200 -18.605100 1.841500 10.332600 6.927700 -32.290700 0.000000 0.000000 0.000000 -7.125000 0.000000 0.000000 -25.457300 60.865100 10.221200 0.000000 -0.000000 0.000000 -3.757300 0.341700 23.268500 -13.660300 -22.247000 -2.698200 -19.933900 -10.471900 -9.629300 0.000000 0.000000 0.000000 7.125000 0.000000 -0.000000 5.018800 19.769400 3.037000
0.965645 17.943900 -8.846978 -6.322857 -6.924425 8.173549 0.000000 0.000000 0.000000 -14.196024 -0.808711 -13.543182 2.686386 10.169131 29.526271 1.188628 1.719239 -21.283450 0.207554 -2.933335 -8.093266 0.000000 0.000000 0.000000 24.172916 6.407424 -13.939979 -2.423795 -9.697895 28.003979 -0.745374 -1.644461 -16.983400 -0.006038 -0.502593 1.381158 -1.640485 0.687945 -8.771916 4.234448 0.882452 -0.504904 5.469159 0.365355 4.308031 1.597476 0.732219 -15.602208 -5.987470 3.066013 40.638832 -2.491112 0.624193 17.842806 0.000000 0.000000 0.000000 0.281428 -2.643267 -30.288413 11.235553 -18.648340 1.850508 10.345781 6.824436 -32.224607 0.000000 0.000000 0.000000 -7.125000 0.000000 0.000000 -25.384001 60.809438 10.155866 0.000000 0.000000 0.000000 -3.763843 0.297701 23.266888 -13.637068 -22.213432 -2.689381 -19.844480 -10.438237 -9.649308 0.000000 0.000000 0.000000 7.125000 0.000000 0.000000 5.082902 19.754418 3.077775
0.969027 17.942735 -8.844838 -6.285985 -6.975535 8.150498 0.000000 0.000000 0.000000 -14.259882 -0.716623 -13.534032 2.684945 10.166738 29.518297 1.186190 1.765462 -21.282224 0.243756 -3.176126 -8.769583 0.000000 0.000000 0.000000 24.109845 6.372616 -13.935280 -2.426579 -9.703100 28.020495 -0.725077 -1.579201 -16.731354 -0.026630 -1.037549 2.852306 -1.667598 0.696406 -8.797267 4.237548 0.895368 -0.474019 5.491071 0.369772 4.352645 1.569240 0.745461 -15.629033 -5.986497 3.097195 40.643986 -2.479994 0.632231 17.854889 0.000000 0.000000 0.000000 0.238706 -2.649727 -30.219694 11.274573 -18.707807 1.863013 10.038913 6.857349 -32.421725 0.000000 0.000000 0.000000 -7.125000 0.000000 0.000000 -25.881320 60.910931 10.433441 0.000000 0.000000 0.000000 -3.807411 0.276653 23.345333 -13.651847 -22.234819 -2.694996 -19.806788 -10.549538 -9.663310 0.000000 0.000000 0.000000 7.125000 0.000000 0.000000 5.109978 19.742215 3.095689
0.969907 17.940573 -8.846205 -6.290485 -7.010190 8.125768 0.000000 0.000000 0.000000 -14.261456 -0.646139 -13.525244 2.684884 10.166584 29.517838 1.178889 1.843056 -21.252872 0.291673 -3.470947 -9.592948 0.000000 0.000000 0.000000 24.107753 6.390863 -13.913750 -2.428336 -9.706403 28.031185 -0.708017 -1.564320 -16.535219 -0.046148 -1.381566 3.799307 -1.693370 0.701455 -8.797006 4.255977 0.903151 -0.447776 5.527067 0.371989 4.378581 1.535420 0.738706 -15.630717 -5.988919 3.098995 40.631898 -2.474054 0.627271 17.848075 0.000000 0.000000 0.000000 0.202122 -2.668017 -30.210586 11.289966 -18.731295 1.867948 9.979832 6.915188 -32.558180 0.000000 0.000000 0.000000 -7.125000 0.000000 0.000000 -26.067854 61.017527 10.580869 0.000000 0.000000 0.000000 -3.842980 0.277963 23.444027 -13.681576 -22.277710 -2.706259 -19.850897 -10.706037 -9.680090 0.000000 0.000000 0.000000 7.125000 0.000000 0.000000 5.078657 19.721471 3.079000
0.970000 17.939804 -8.849672 -6.309466 -6.967445 8.157702 0.000000 0.000000 0.000000 -14.228125 -0.664203 -13.581609 2.686010 10.168503 29.524244 1.175697 1.791513 -21.202617 0.274879 -3.371294 -9.314333 0.000000 0.000000 0.000000 24.130190 6.422099 -13.947329 -2.428917 -9.707455 28.034624 -0.715688 -1.550629 -16.614387 -0.042480 -1.328746 3.653811 -1.698293 0.683327 -8.800365 4.268895 0.878766 -0.446217 5.540892 0.359454 4.384462 1.508548 0.734504 -15.658017 -5.965848 3.092356 40.634279 -2.459957 0.623107 17.855164 0.000000 0.000000 0.000000 0.184881 -2.679526 -30.245847 11.286370 -18.725915 1.866855 10.189131 6.886540 -32.367748 0.000000 0.000000 0.000000 -7.125000 0.000000 0.000000 -25.676529 60.899061 10.337380 0.000000 0.000000 0.000000 -3.852327 0.227294 23.473505 -13.679246 -22.274315 -2.705345 -19.916557 -10.704328 -9.642378 0.000000 0.000000 0.000000 7.125000 0.000000 0.000000 5.031403 19.756756 3.046180
0.971038 17.940441 -8.851464 -6.295321 -6.901160 8.208683 0.000000 0.000000 0.000000 -14.234080 -0.764158 -13.639692 2.689858 10.175152 29.545839 1.176682 1.749027 -21.193050 0.238083 -3.138074 -8.663538 0.000000 0.000000 0.000000 24.115268 6.417933 -14.002908 -2.426999 -9.703894 28.023166 -0.728703 -1.541767 -16.754137 -0.033807 -1.184062 3.255470 -1.719477 0.647935 -8.836535 4.270511 0.833111 -0.436597 5.550386 0.335420 4.419467 1.491288 0.743807 -15.708933 -5.945987 3.103449 40.614375 -2.444863 0.626896 17.857104 0.000000 0.000000 0.000000 0.165445 -2.710831 -30.222856 11.263404 -18.690863 1.859432 10.501590 6.867457 -31.956881 0.000000 0.000000 0.000000 -7.125000 0.000000 0.000000 -24.984996 60.607281 9.864771 0.000000 0.000000 0.000000 -3.875241 0.132216 23.537978 -13.671444 -22.263124 -2.702376 -19.963347 -10.657640 -9.538330 0.000000 0.000000 0.000000 7.125000 0.000000 0.000000 4.996832 19.863409 3.013150
0.972572 17.941527 -8.851524 -6.307071 -6.871437 8.223269 0.000000 0.000000 0.000000 -14.220277 -0.852041 -13.645875 2.696202 10.186194 29.581689 1.174235 1.803946 -21.195799 0.233567 -3.110190 -8.585758 0.000000 0.000000 0.000000 24.130301 6.397590 -14.007524 -2.421956 -9.694602 27.993420 -0.732507 -1.542282 -16.796485 -0.031883 -1.152063 3.167315 -1.716596 0.616271 -8.833011 4.283576 0.789783 -0.430932 5.557413 0.313514 4.428053 1.491061 0.753161 -15.701102 -5.967262 3.123207 40.563701 -2.448591 0.631947 17.827559 0.000000 0.000000 0.000000 0.147427 -2.699006 -30.205808 11.258244 -18.682916 1.857758 10.759985 6.846511 -31.745480 0.000000 0.000000 0.000000 -7.125000 0.000000 0.000000 -24.530290 60.479603 9.595932 0.000000 0.000000 0.000000 -3.917029 0.082188 23.652311 -13.667607 -22.257580 -2.700911 -19.945955 -10.704299 -9.523282 0.000000 0.000000 0.000000 7.125000 0.000000 0.000000 5.009116 19.880483 3.018641
0.973355 17.942729 -8.851400 -6.378563 -6.879446 8.245748 0.000000 0.000000 0.000000 -14.137823 -0.822702 -13.698020 2.703028 10.198044 29.620401 1.170413 1.809997 -21.164941 0.253582 -3.238782 -8.944470 0.000000 0.000000 0.000000 24.207899 6.419408 -13.994939 -2.415727 -9.683028 27.956263 -0.733365 -1.531793 -16.801034 -0.032738 -1.168217 3.211753 -1.674502 0.603994 -8.850134 4.324229 0.766962 -0.428916 5.574323 0.302181 4.442316 1.452368 0.751463 -15.660280 -5.969307 3.131886 40.524112 -2.438644 0.629610 17.793701 0.000000 0.000000 0.000000 0.110970 -2.675644 -30.217230 11.278177 -18.713325 1.864158 10.855323 6.816626 -31.796949 0.000000 0.000000 0.000000 -7.125000 0.000000 0.000000 -24.475999 60.548493 9.613552 0.000000 0.000000 0.000000 -3.979464 0.057067 23.761863 -13.662017 -22.249449 -2.698814 -19.906762 -10.808665 -9.586045 0.000000 0.000000 0.000000 7.125000 0.000000 0.000000 5.037787 19.816944 3.043212
0.973734 17.943669 -8.851517 -6.458741 -6.913169 8.291080 0.000000 0.000000 0.000000 -14.046402 -0.735956 -13.796701 2.709526 10.209239 29.656974 1.174684 1.725611 -21.165651 0.255899 -3.254312 -8.987679 0.000000 0.000000 0.000000 24.287963 6.463365 -14.003591 -2.409960 -9.672347 27.922011 -0.730167 -1.545299 -16.772171 -0.029877 -1.115213 3.065806 -1.627769 0.608729 -8.890621 4.366050 0.766405 -0.435039 5.592996 0.302137 4.458742 1.393538 0.745367 -15.637316 -5.946104 3.132959 40.522662 -2.416644 0.624177 17.785223 0.000000 0.000000 0.000000 0.063164 -2.661027 -30.192268 11.293939 -18.737376 1.869241 10.866183 6.837073 -31.830393 0.000000 0.000000 0.000000 -7.125000 0.000000 0.000000 -24.493696 60.581051 9.640068 0.000000 0.000000 0.000000 -4.033917 0.043378 23.859308 -13.665980 -22.255110 -2.700320 -19.919927 -10.890003 -9.596925 0.000000 0.000000 0.000000 7.125000 0.000000 0.000000 5.028525 19.804496 3.038968
0.974381 17.944107 -8.851707 -6.495182 -6.945209 8.316504 0.000000 0.000000 0.000000 -14.010432 -0.717388 -13.844541 2.714864 10.218487 29.687245 1.184256 1.661317 -21.221050 0.235481 -3.121588 -8.617565 0.000000 0.000000 0.000000 24.317721 6.480189 -14.013982 -2.406371 -9.665703 27.900781 -0.726371 -1.577877 -16.745151 -0.024341 -1.005214 2.763123 -1.618294 0.607377 -8.857253 4.391743 0.763603 -0.470892 5.612808 0.302451 4.402564 1.381449 0.746860 -15.614228 -5.968805 3.149988 40.546795 -2.422954 0.625907 17.794926 0.000000 0.000000 0.000000 0.010227 -2.604975 -30.056973 11.317106 -18.772717 1.876704 10.632431 6.961963 -31.929360 0.000000 0.000000 0.000000 -7.125000 0.000000 0.000000 -24.823755 60.614001 9.799552 0.000000 0.000000 0.000000 -4.062154 0.068160 23.924506 -13.670860 -22.262167 -2.702153 -19.962985 -10.903679 -9.566413 0.000000 0.000000 0.000000 7.125000 0.000000 0.000000 4.997425 19.833746 3.016787
